# xmcd
#
# Track frame offsets: 
#        150
#        6519
#        22006
#        57527
#        77152
#        100829
#        119750
#        130790
#        156539
#        183487
#        197588
#        216121
#        246102
#        271997
#        296853
#        317429
#
# Disc length: 4437 seconds
#
# Revision: 0
# Processed by: cddbd v1.5.1PL2 Copyright (c) Steve Scherf et al.
# Submitted via: ExactAudioCopy v0.95b2
#
DISCID=f3115310
DTITLE=City Mouse - Long Time No See
DYEAR=2004
DGENRE=Blues
TTITLE0=There Was A Little Baby
TTITLE1=Baton Rouge
TTITLE2=Moonlight Midnight
TTITLE3=Across The Great Divide
TTITLE4=Willin'
TTITLE5=Boats To Build
TTITLE6=Old Toy Trains
TTITLE7=Liza Jane
TTITLE8=Blues Stay Away From Me
TTITLE9=All I Really Need
TTITLE10=Speed Of The Sound Of Lonliness
TTITLE11=Moondance
TTITLE12=Crawdads
TTITLE13=Ponies
TTITLE14=One More Mile
TTITLE15=Ain't Got No Home
EXTD=
EXTT0=
EXTT1=
EXTT2=
EXTT3=
EXTT4=
EXTT5=
EXTT6=
EXTT7=
EXTT8=
EXTT9=
EXTT10=
EXTT11=
EXTT12=
EXTT13=
EXTT14=
EXTT15=
PLAYORDER=
